<!DOCTYPE svg PUBLIC "-//W3C//DTD SVG 1.1//EN" "http://www.w3.org/Graphics/SVG/1.1/DTD/svg11.dtd">
<!-- Uploaded to: SVG Repo, www.svgrepo.com, Transformed by: SVG Repo Mixer Tools -->
<svg fill="#000000" height="84px" width="84px" version="1.1" id="Layer_1" xmlns="http://www.w3.org/2000/svg" xmlns:xlink="http://www.w3.org/1999/xlink" viewBox="0 0 512 512" xml:space="preserve">
<g id="SVGRepo_bgCarrier" stroke-width="0"/>
<g id="SVGRepo_tracerCarrier" stroke-linecap="round" stroke-linejoin="round"/>
<g id="SVGRepo_iconCarrier"> <g> <g> <path d="M302.564,91.931c-63.97,0-258.176,301.034-290.443,378.932c-6.999,16.902-10.167,29.658-2.854,36.966 c2.918,2.924,6.71,4.17,11.284,4.17c6.88,0,15.535-2.823,25.682-7.024c77.899-32.267,378.933-226.472,378.933-290.443 C425.166,146.931,370.166,91.931,302.564,91.931z M361.525,269.17c-12.098,11.195-25.647,22.8-40.163,34.565 c-5.126-21.395-23.504-48.334-69.883-48.334c-5.642,0-10.217,4.575-10.217,10.217s4.575,10.217,10.217,10.217 c49.079,0,51.025,36.667,51.084,40.917c0.003,0.574,0.241,1.069,0.334,1.615C200.139,398.276,61.43,480.919,26.444,490.648 c6.099-21.897,40.765-84.433,85.417-153.337c10.374,0.789,41.093,5.434,47.971,32.954c1.162,4.639,5.328,7.737,9.903,7.737 c0.823,0,1.656-0.095,2.489-0.304c5.473-1.367,8.8-6.915,7.433-12.392c-7.516-30.058-34.292-42.784-55.394-46.924 c39.008-58.768,83.915-119.852,123.664-162.812c4.059-4.388,7.795-8.258,11.321-11.803c6.978,5.68,22.882,20.741,22.882,40.114 c0,5.642,4.575,10.217,10.217,10.217s10.217-4.575,10.217-10.217c0-26.161-18.09-45.412-28.346-54.237 c17.906-15.605,25.885-17.281,28.346-17.281c56.337,0,102.169,45.831,102.169,102.169 C404.733,217.97,401.615,232.074,361.525,269.17z"/> </g> </g> <g> <g> <path d="M501.943,124.038c-37.091-22.255-73.933-24.37-93.992-23.362c13.998-66.285-15.096-96.372-16.428-97.704 c-3.956-3.966-10.322-3.946-14.317-0.04c-4.006,3.906-4.076,10.357-0.215,14.402c1.073,1.123,25.991,28.211,7.703,92.221 c-0.978,3.427-0.105,7.114,2.31,9.733s5.997,3.792,9.519,3.093c0.469-0.09,47.747-9.119,94.905,19.177 c1.646,0.988,3.457,1.457,5.248,1.457c3.472,0,6.854-1.766,8.77-4.959C508.348,133.217,506.782,126.941,501.943,124.038z"/> </g> </g> </g>
</svg>