<!DOCTYPE svg PUBLIC "-//W3C//DTD SVG 1.1//EN" "http://www.w3.org/Graphics/SVG/1.1/DTD/svg11.dtd">
<!-- Uploaded to: SVG Repo, www.svgrepo.com, Transformed by: SVG Repo Mixer Tools -->
<svg fill="#000000" version="1.1" id="Layer_1" xmlns="http://www.w3.org/2000/svg" xmlns:xlink="http://www.w3.org/1999/xlink" viewBox="0 0 512 512" xml:space="preserve" width="74px" height="74px">
<g id="SVGRepo_bgCarrier" stroke-width="0"/>
<g id="SVGRepo_tracerCarrier" stroke-linecap="round" stroke-linejoin="round"/>
<g id="SVGRepo_iconCarrier"> <g> <g> <path d="M353.3,114.786l-34.827-49.75L333.564,42.4c2.85-4.277,1.695-10.059-2.582-12.909c-4.286-2.859-10.059-1.695-12.909,2.582 L299.455,60c-2.127,3.191-2.082,7.359,0.118,10.5l38.473,54.959c13.791,19.7,25.009,55.332,25.009,79.427v124.312 c-10.71,4.814-36.174,15.238-55.855,15.238c-11.877,0-16.677-3.764-28.282-12.854c-10.477-8.209-24.823-19.45-51.336-32.709 c-34.425-17.209-61.432-9.195-78.636,3.552V195.573c0-23.532,12.191-59.091,26.623-77.65l36.582-47.045 c2.459-3.164,2.618-7.545,0.395-10.877l-18.618-27.927c-2.859-4.277-8.641-5.441-12.909-2.582 c-4.277,2.85-5.432,8.632-2.582,12.909l14.896,22.345l-32.464,41.75c-17.127,22.023-30.541,61.15-30.541,89.077v279.214 c0,20.518,16.664,37.214,37.15,37.214h177.045c20.486,0,37.15-16.691,37.15-37.204V204.886 C381.673,177.091,369.209,137.514,353.3,114.786z M363.055,474.796c0,10.25-8.314,18.586-18.532,18.586H167.477 c-10.218,0-18.532-8.341-18.532-18.595V328.631c5.552-7.731,28.434-34.057,70.309-13.103 c24.836,12.418,38.327,22.991,48.177,30.709c12.464,9.764,21.464,16.818,39.768,16.818c19.225,0,41.799-7.821,55.855-13.591 V474.796z"/> </g> </g> <g> <g> <rect x="186.182" width="130.327" height="18.618"/> </g> </g> </g>
</svg>